<?xml version="1.0" standalone="no"?>
<!DOCTYPE svg PUBLIC "-//W3C//DTD SVG 20010904//EN"
 "http://www.w3.org/TR/2001/REC-SVG-20010904/DTD/svg10.dtd">
<svg version="1.0" xmlns="http://www.w3.org/2000/svg"
 width="500.000000pt" height="314.000000pt" viewBox="0 0 500.000000 314.000000"
 preserveAspectRatio="xMidYMid meet">

<g transform="translate(0.000000,314.000000) scale(0.100000,-0.100000)"
fill="#000000" stroke="none">
<path d="M2480 2368 c-31 -106 -65 -142 -165 -174 -27 -9 -54 -20 -58 -24 -5
-4 21 -18 57 -30 101 -33 134 -69 166 -177 7 -24 16 -43 20 -43 4 0 13 19 20
43 32 108 65 144 166 177 36 12 62 26 57 30 -4 4 -30 15 -58 24 -101 33 -137
70 -164 174 -7 23 -15 42 -20 42 -4 0 -14 -19 -21 -42z"/>
<path d="M1980 2101 c-137 -39 -231 -77 -297 -120 -77 -50 -88 -64 -73 -91 16
-29 106 -69 172 -77 l53 -6 -40 28 c-22 15 -42 29 -43 30 -2 2 32 15 76 29 68
21 160 38 347 61 22 3 47 10 55 16 13 8 10 14 -16 37 -17 15 -41 43 -54 62
-28 43 -49 60 -69 59 -9 0 -59 -13 -111 -28z"/>
<path d="M2878 2118 c-8 -7 -25 -30 -37 -50 -12 -21 -36 -47 -52 -59 -54 -38
-44 -43 129 -65 135 -16 233 -37 295 -63 l38 -16 -43 -29 -43 -28 54 6 c65 7
156 49 173 79 10 19 6 25 -28 55 -57 49 -182 106 -322 147 -139 39 -142 40
-164 23z"/>
<path d="M469 2071 c-66 -21 -128 -62 -185 -123 -86 -90 -128 -201 -127 -338
1 -190 103 -354 271 -433 64 -31 72 -32 192 -31 143 0 215 19 308 80 l52 34 0
105 c0 57 5 115 11 128 6 13 30 33 52 45 l42 21 -237 0 c-131 1 -238 -3 -238
-8 0 -4 20 -14 45 -21 25 -7 59 -25 75 -40 30 -28 30 -28 30 -144 0 -103 -2
-118 -20 -136 -37 -37 -120 -16 -191 48 -87 78 -129 192 -129 347 0 152 45
272 130 348 83 74 171 82 261 22 47 -31 111 -124 129 -189 7 -25 16 -43 20
-41 12 7 23 158 15 204 -6 36 -9 40 -45 46 -21 3 -66 20 -101 37 -127 61 -250
74 -360 39z"/>
<path d="M4633 1996 c-100 -22 -184 -44 -188 -47 -3 -4 7 -11 24 -17 56 -20
62 -41 59 -230 l-3 -170 -207 173 -206 174 -89 -14 c-48 -8 -91 -15 -95 -15
-19 0 -6 -20 12 -20 12 0 32 -11 45 -25 l25 -24 0 -253 c0 -276 -2 -288 -57
-323 -18 -11 -32 -23 -33 -27 0 -5 90 -8 200 -8 110 0 200 4 200 8 0 4 -14 16
-30 25 -56 33 -61 56 -58 268 l3 192 145 -121 145 -122 12 -64 c19 -104 65
-179 141 -227 25 -16 52 -29 59 -29 10 0 13 79 13 405 0 451 0 449 66 503 49
41 46 41 -183 -12z"/>
<path d="M2420 1871 c-74 -24 -119 -63 -145 -123 -19 -47 -19 -82 0 -140 20
-57 55 -91 202 -192 134 -93 152 -116 134 -177 -21 -70 -103 -89 -196 -45 -54
25 -98 69 -140 141 -15 25 -29 45 -32 45 -13 0 4 -177 20 -210 16 -34 19 -35
74 -37 32 -1 98 -5 147 -8 97 -8 150 2 199 37 59 42 91 159 68 246 -17 61 -67
111 -208 208 -67 47 -129 95 -138 107 -36 52 -5 106 66 114 63 7 113 -18 156
-78 32 -45 87 -89 111 -89 13 0 -7 62 -44 136 -26 51 -26 51 -82 57 -137 15
-168 16 -192 8z"/>
<path d="M1063 1766 c36 -33 47 -84 47 -213 l0 -113 68 46 67 45 5 82 5 82 75
3 c41 2 84 1 96 -2 28 -7 73 -53 90 -91 l13 -30 1 37 c0 20 -5 59 -11 86 l-12
49 -151 7 c-83 4 -185 14 -226 22 -97 18 -97 18 -67 -10z"/>
<path d="M1604 1725 l26 -24 0 -236 0 -236 -25 -23 c-14 -13 -25 -26 -25 -30
0 -3 56 -6 125 -6 69 0 125 2 125 5 0 3 -11 16 -25 28 l-26 22 3 174 3 174
152 -194 c83 -107 161 -204 172 -216 23 -24 80 -57 87 -50 2 2 -4 19 -13 38
-16 29 -18 70 -21 294 l-3 260 28 22 28 23 -129 0 -129 0 27 -25 c26 -24 26
-25 26 -176 l0 -152 -86 109 c-47 60 -109 139 -137 177 l-52 67 -79 0 -79 0
27 -25z"/>
<path d="M2811 1721 l29 -29 0 -224 c0 -123 -4 -239 -10 -257 -5 -19 -22 -47
-37 -63 -14 -15 -24 -31 -20 -34 4 -4 48 7 99 25 51 17 110 31 131 31 20 0 37
2 37 4 0 3 -13 18 -30 34 -28 28 -30 36 -30 104 0 44 5 79 12 86 16 16 200 16
216 0 7 -7 12 -43 12 -90 0 -65 -3 -81 -20 -98 -11 -11 -25 -20 -31 -20 -5 0
-7 -4 -4 -10 6 -10 237 -15 247 -5 3 3 -8 19 -24 35 l-29 30 3 231 3 231 28
24 28 24 -133 -1 c-99 0 -128 -3 -112 -11 12 -5 27 -21 33 -34 15 -34 14 -167
-1 -182 -8 -8 -47 -12 -110 -12 -118 0 -122 4 -116 117 3 67 6 78 31 99 l28
24 -130 0 -129 0 29 -29z"/>
<path d="M3550 1728 l45 -23 3 -234 c3 -258 2 -263 -59 -276 -62 -14 -13 -22
146 -24 99 -1 165 2 165 7 0 6 -12 13 -27 17 -63 15 -63 17 -63 261 0 122 3
230 6 239 4 9 25 25 48 35 l41 19 -175 0 -174 1 44 -22z"/>
<path d="M1343 1536 c-71 -18 -169 -67 -221 -112 -39 -33 -116 -133 -108 -141
1 -2 21 7 44 19 22 13 43 20 47 16 16 -16 -10 -84 -49 -126 l-41 -45 30 7 c17
4 131 11 255 14 l225 7 17 50 c9 28 17 68 18 90 l0 40 -29 -44 c-46 -69 -71
-81 -177 -81 -75 0 -93 3 -98 16 -9 25 -7 132 3 139 9 5 107 19 224 31 31 3
57 9 57 14 0 4 -15 17 -34 28 -27 16 -35 28 -38 54 -3 30 -6 33 -38 35 -19 1
-59 -4 -87 -11z"/>
<path d="M3489 1543 c-3 -11 -6 -35 -8 -54 0 -8 -17 -23 -36 -32 -19 -9 -35
-21 -35 -25 0 -11 72 -22 136 -22 l44 0 0 64 c0 58 -2 64 -22 70 -32 8 -78 7
-79 -1z"/>
<path d="M3770 1411 l0 -49 78 -38 c42 -21 81 -40 86 -42 5 -3 0 11 -10 29
-22 39 -127 149 -143 149 -6 0 -11 -21 -11 -49z"/>
<path d="M1113 969 c26 -20 27 -24 27 -109 0 -85 -1 -89 -27 -109 l-28 -20
100 0 c78 0 96 2 80 11 -38 20 -45 40 -45 120 0 73 2 81 26 103 l27 25 -94 0
-94 -1 28 -20z"/>
<path d="M1509 964 c17 -22 21 -41 21 -106 0 -73 -2 -81 -26 -103 l-27 -25 53
0 c51 0 53 1 36 19 -13 15 -16 34 -14 97 l3 79 42 -95 c23 -52 45 -95 49 -95
4 0 24 37 44 82 20 46 40 86 43 90 15 15 7 -133 -9 -155 l-15 -22 83 0 83 1
-27 20 c-27 20 -28 24 -28 107 0 74 3 89 22 109 l21 23 -61 0 -62 0 -31 -67
-32 -68 -31 67 -31 68 -63 0 -63 0 20 -26z"/>
<path d="M2108 965 c18 -23 22 -41 22 -107 0 -73 -2 -81 -26 -103 l-27 -25 94
0 94 1 -27 20 c-19 14 -28 30 -28 49 0 25 4 28 42 33 59 8 93 36 93 77 0 56
-36 74 -157 78 l-101 4 21 -27z m145 -27 c16 -22 17 -29 7 -49 -13 -24 -29
-39 -42 -39 -5 0 -8 27 -8 61 0 66 9 72 43 27z"/>
<path d="M2690 972 c0 -36 -91 -219 -114 -230 -17 -9 -10 -11 38 -11 54 -1 58
0 41 13 -16 12 -18 19 -10 43 10 26 14 28 65 28 51 0 55 -2 65 -28 8 -24 6
-31 -10 -43 -17 -12 -9 -14 66 -14 81 0 83 1 62 18 -12 9 -44 67 -71 127 l-49
110 -41 3 c-36 3 -42 0 -42 -16z m40 -82 c11 -21 20 -42 20 -45 0 -3 -18 -5
-41 -5 -22 0 -39 3 -37 8 2 4 10 24 18 45 8 20 15 37 17 37 1 0 12 -18 23 -40z"/>
<path d="M3217 976 c-73 -27 -105 -82 -86 -151 29 -104 211 -127 260 -33 l12
23 -24 -21 c-35 -31 -63 -37 -102 -20 -41 16 -57 41 -57 86 0 90 81 131 141
71 l29 -29 0 32 c0 31 -3 34 -37 39 -21 3 -51 8 -68 11 -16 3 -47 0 -68 -8z"/>
<path d="M3630 948 c1 -37 2 -40 12 -23 15 27 28 35 61 35 l27 0 0 -94 c0 -91
-1 -95 -27 -115 l-28 -20 95 0 95 0 -27 20 c-27 20 -28 24 -28 115 l0 94 29 0
c20 0 36 -9 50 -26 l21 -27 0 42 0 41 -140 0 -140 0 0 -42z"/>
</g>
</svg>
